<svg xmlns="http://www.w3.org/2000/svg" fill="none" viewBox="0 0 1489 291"><g fill="#FBFBFB" clip-path="url(#a)"><path d="M617.034 166.474h105.149v-49.997H617.034V55.283h107.754V5.346H558.124V286.55h167.019v-49.997H617.034v-70.079ZM965.341 92.248c0-55.21-44.345-86.902-106.275-86.902h-83.124v281.263h59.265V179.151h5.21l80.164 107.399h71.58l-88.69-114.508c37.24-12.321 61.87-40.282 61.87-79.794Zm-107.399 41.408h-22.735V54.573h22.735c27.234 0 46.95 13.447 46.95 39.156.059 26.48-19.716 39.927-46.95 39.927ZM993.345 145.918c0 79.794 65.595 145.075 146.885 145.075 24.22 0 47.72-5.213 67.85-15.639v-67.117c-15.63 15.283-39.13 26.124-66.72 26.124-50.33 0-87.98-38.031-87.98-88.384 0-50.352 37.65-88.383 87.98-88.383 27.59 0 51.09 10.84 66.72 26.124V16.6C1187.95 6.53 1164.45.96 1140.23.96c-81.29-.118-146.885 65.163-146.885 144.957ZM1429.22 5.346v111.131h-113.68V5.346h-60.03V286.55h60.03V166.474h113.68V286.55h59.62V5.346h-59.62ZM517.154 286.55 451.791 5.346h-71.224L336.873 190.11 293.238 5.346h-71.224l-42.569 180.143L136.817 5.346H65.652L.289 286.55h56.837l44.108-189.74 44.109 189.74h68.204l44.109-189.74 46.476 189.74h65.541l46.476-189.74 44.108 189.74h56.897Z"/></g><defs><clipPath id="a"><path fill="#fff" d="M0 0h1489v291H0z"/></clipPath></defs></svg>